<svg xmlns="http://www.w3.org/2000/svg" width="512" height="512" viewBox="0 0 108 108"><rect width="108" height="108" rx="0" fill="url(#bgv)"/><g transform="translate(54 54) scale(1.05) translate(-54 -54)"><defs>
  <radialGradient id="bgv" cx="0.5" cy="0.42" r="0.75">
    <stop offset="0" stop-color="#1b120b"/><stop offset="1" stop-color="#0a0605"/>
  </radialGradient>
  <linearGradient id="bodyg" x1="0" y1="0" x2="1" y2="0">
    <stop offset="0" stop-color="#6e4c2c"/><stop offset="0.44" stop-color="#4a3119"/>
    <stop offset="0.56" stop-color="#3a2513"/><stop offset="1" stop-color="#5a3c20"/>
  </linearGradient>
  <linearGradient id="rimg" x1="0" y1="0" x2="1" y2="0.25">
    <stop offset="0" stop-color="#d9c096"/><stop offset="0.35" stop-color="#f7ecd2"/>
    <stop offset="0.7" stop-color="#e2cba2"/><stop offset="1" stop-color="#b3946a"/>
  </linearGradient>
  <radialGradient id="paperg" cx="0.5" cy="0.4" r="0.72">
    <stop offset="0" stop-color="#ecdfc4"/><stop offset="1" stop-color="#c2ab86"/>
  </radialGradient>
  <linearGradient id="tealg" x1="0" y1="0" x2="0" y2="1">
    <stop offset="0" stop-color="#63e9ca"/><stop offset="1" stop-color="#2c9c86"/>
  </linearGradient>
  <radialGradient id="tglow" cx="0.5" cy="0.5" r="0.5">
    <stop offset="0" stop-color="#3fd6b6" stop-opacity="0.4"/>
    <stop offset="1" stop-color="#3fd6b6" stop-opacity="0"/>
  </radialGradient>
  <filter id="grain"><feTurbulence type="fractalNoise" baseFrequency="0.85" numOctaves="2"/>
    <feColorMatrix type="saturate" values="0"/>
    <feComposite operator="in" in2="SourceGraphic"/></filter>
</defs><clipPath id="cin2"><ellipse cx="54" cy="45" rx="21.8" ry="5.3"/></clipPath><rect x="49.84" y="22.23" width="2.76" height="6.04" rx="1.38" fill="#9c6f3f" opacity="0.92"/><rect x="49.84" y="31.67" width="2.76" height="8.44" rx="1.38" fill="#9c6f3f" opacity="0.92"/><rect x="49.84" y="43.11" width="2.76" height="4.18" rx="1.38" fill="#9c6f3f" opacity="0.92"/><rect x="50.85" y="22.74" width="2.81" height="4.52" rx="1.41" fill="#7a5a38" opacity="0.95"/><rect x="50.85" y="29.41" width="2.81" height="4.19" rx="1.41" fill="#7a5a38" opacity="0.95"/><rect x="50.85" y="38.21" width="2.81" height="8.31" rx="1.41" fill="#7a5a38" opacity="0.95"/><rect x="60.88" y="25.32" width="2.49" height="5.02" rx="1.25" fill="#c98f4e" opacity="0.77"/><rect x="60.88" y="34.72" width="2.49" height="10.73" rx="1.25" fill="#c98f4e" opacity="0.77"/><rect x="57.92" y="23.88" width="2.64" height="10.98" rx="1.32" fill="#e3c795" opacity="0.85"/><rect x="57.92" y="39.50" width="2.64" height="3.49" rx="1.32" fill="#e3c795" opacity="0.85"/><rect x="44.51" y="24.70" width="2.49" height="11.68" rx="1.24" fill="#7a5a38" opacity="0.77"/><rect x="44.51" y="38.38" width="2.49" height="8.46" rx="1.24" fill="#7a5a38" opacity="0.77"/><rect x="55.73" y="22.18" width="2.74" height="7.51" rx="1.37" fill="#c98f4e" opacity="0.91"/><rect x="55.73" y="33.41" width="2.74" height="7.84" rx="1.37" fill="#c98f4e" opacity="0.91"/><rect x="55.73" y="43.84" width="2.74" height="3.62" rx="1.37" fill="#c98f4e" opacity="0.91"/><rect x="60.67" y="22.61" width="2.50" height="11.62" rx="1.25" fill="#9c6f3f" opacity="0.78"/><rect x="60.67" y="36.39" width="2.50" height="8.00" rx="1.25" fill="#9c6f3f" opacity="0.78"/><rect x="42.90" y="26.39" width="2.40" height="9.35" rx="1.20" fill="#8d6b46" opacity="0.72"/><rect x="42.90" y="40.59" width="2.40" height="4.63" rx="1.20" fill="#8d6b46" opacity="0.72"/><rect x="42.75" y="24.64" width="2.40" height="3.78" rx="1.20" fill="#8d6b46" opacity="0.72"/><rect x="42.75" y="31.46" width="2.40" height="10.78" rx="1.20" fill="#8d6b46" opacity="0.72"/><rect x="43.0" y="69.5" width="22.0" height="5.6" rx="2.6" fill="#d3b88c"/><path d="M30.2 45.0 C 31.7 59.0, 36.5 62.0, 39.5 70.0 Q 54 73.6, 68.5 70.0 C 71.5 62.0, 76.3 59.0, 77.8 45.0 A 23.8 6.3 0 0 1 30.2 45.0 z" fill="url(#bodyg)"/><path d="M54 52.8 L54 71.5" stroke="#170d05" stroke-width="0.9" opacity="0.35" fill="none"/><path d="M52.6 53.3 L52.6 70.0" stroke="#ffe9c2" stroke-width="1.6" opacity="0.10" fill="none"/><path d="M30.8 47.0 C 32.2 58.0, 37.5 61.0, 40.5 69.0" stroke="#ffdfae" stroke-width="1.4" opacity="0.22" fill="none"/><ellipse cx="54" cy="45" rx="21.8" ry="5.3" fill="url(#paperg)"/><ellipse cx="54" cy="45" rx="21.8" ry="5.3" fill="#7a6242" opacity="0.3" filter="url(#grain)"/><path d="M32.2 45.0 A 21.8 5.3 0 0 1 75.8 45.0" fill="none" stroke="#5f4930" stroke-width="2.4" opacity="0.45"/><g clip-path="url(#cin2)" opacity="0.8"><rect x="49.84" y="22.23" width="2.76" height="6.04" rx="1.38" fill="#9c6f3f" opacity="0.92"/><rect x="49.84" y="31.67" width="2.76" height="8.44" rx="1.38" fill="#9c6f3f" opacity="0.92"/><rect x="49.84" y="43.11" width="2.76" height="4.18" rx="1.38" fill="#9c6f3f" opacity="0.92"/><rect x="50.85" y="22.74" width="2.81" height="4.52" rx="1.41" fill="#7a5a38" opacity="0.95"/><rect x="50.85" y="29.41" width="2.81" height="4.19" rx="1.41" fill="#7a5a38" opacity="0.95"/><rect x="50.85" y="38.21" width="2.81" height="8.31" rx="1.41" fill="#7a5a38" opacity="0.95"/><rect x="60.88" y="25.32" width="2.49" height="5.02" rx="1.25" fill="#c98f4e" opacity="0.77"/><rect x="60.88" y="34.72" width="2.49" height="10.73" rx="1.25" fill="#c98f4e" opacity="0.77"/><rect x="57.92" y="23.88" width="2.64" height="10.98" rx="1.32" fill="#e3c795" opacity="0.85"/><rect x="57.92" y="39.50" width="2.64" height="3.49" rx="1.32" fill="#e3c795" opacity="0.85"/><rect x="44.51" y="24.70" width="2.49" height="11.68" rx="1.24" fill="#7a5a38" opacity="0.77"/><rect x="44.51" y="38.38" width="2.49" height="8.46" rx="1.24" fill="#7a5a38" opacity="0.77"/><rect x="55.73" y="22.18" width="2.74" height="7.51" rx="1.37" fill="#c98f4e" opacity="0.91"/><rect x="55.73" y="33.41" width="2.74" height="7.84" rx="1.37" fill="#c98f4e" opacity="0.91"/><rect x="55.73" y="43.84" width="2.74" height="3.62" rx="1.37" fill="#c98f4e" opacity="0.91"/><rect x="60.67" y="22.61" width="2.50" height="11.62" rx="1.25" fill="#9c6f3f" opacity="0.78"/><rect x="60.67" y="36.39" width="2.50" height="8.00" rx="1.25" fill="#9c6f3f" opacity="0.78"/><rect x="42.90" y="26.39" width="2.40" height="9.35" rx="1.20" fill="#8d6b46" opacity="0.72"/><rect x="42.90" y="40.59" width="2.40" height="4.63" rx="1.20" fill="#8d6b46" opacity="0.72"/><rect x="42.75" y="24.64" width="2.40" height="3.78" rx="1.20" fill="#8d6b46" opacity="0.72"/><rect x="42.75" y="31.46" width="2.40" height="10.78" rx="1.20" fill="#8d6b46" opacity="0.72"/></g><path d="M32.2 45.0 A 21.8 5.3 0 0 0 75.8 45.0 L 71.8 52.3 A 17.8 4.3 0 0 0 36.2 52.3 z" fill="#241407" opacity="0.35"/><ellipse cx="54" cy="45" rx="25" ry="6.3" fill="none" stroke="url(#rimg)" stroke-width="4"/><path d="M29.0 44.2 A 25 6.3 0 0 1 79.0 44.2" fill="none" stroke="#fff7e6" stroke-width="1" opacity="0.5"/><ellipse cx="54" cy="81.5" rx="32.4" ry="13.0" fill="url(#tglow)"/><rect x="28.45" y="80.20" width="3.1" height="2.60" rx="1.55" fill="url(#tealg)"/><rect x="33.25" y="80.20" width="3.1" height="2.60" rx="1.55" fill="url(#tealg)"/><rect x="38.05" y="78.65" width="3.1" height="5.70" rx="1.55" fill="url(#tealg)"/><rect x="42.85" y="77.04" width="3.1" height="8.92" rx="1.55" fill="url(#tealg)"/><rect x="47.65" y="75.91" width="3.1" height="11.19" rx="1.55" fill="url(#tealg)"/><rect x="52.45" y="75.50" width="3.1" height="12.00" rx="1.55" fill="url(#tealg)"/><rect x="57.25" y="75.91" width="3.1" height="11.19" rx="1.55" fill="url(#tealg)"/><rect x="62.05" y="77.04" width="3.1" height="8.92" rx="1.55" fill="url(#tealg)"/><rect x="66.85" y="78.65" width="3.1" height="5.70" rx="1.55" fill="url(#tealg)"/><rect x="71.65" y="80.20" width="3.1" height="2.60" rx="1.55" fill="url(#tealg)"/><rect x="76.45" y="80.20" width="3.1" height="2.60" rx="1.55" fill="url(#tealg)"/></g></svg>